<svg width="31" height="30" viewBox="0 0 31 30" fill="none" xmlns="http://www.w3.org/2000/svg">
<path d="M25.248 15.5748H24.5437V6.24542C24.5437 6.11183 24.4863 5.9841 24.3866 5.89502L19.5983 1.62812C19.5128 1.55195 19.4015 1.50977 19.2866 1.50977H6.24352C4.96501 1.51094 3.92788 2.54687 3.92554 3.82658V26.1754C3.92788 27.4539 4.96498 28.4898 6.24352 28.491H22.2266C23.5063 28.491 24.5434 27.4539 24.5458 26.1754V24.5781H25.2489C26.2579 24.5769 27.0747 23.7601 27.077 22.7512V17.4016C27.0747 16.3926 26.257 15.576 25.248 15.5748ZM19.7553 3.02402L22.8444 5.77676H19.7553V3.02402ZM23.6085 26.1744L23.6073 26.1756C23.6061 26.9373 22.9886 27.5537 22.2268 27.5537H6.24254C5.48081 27.5537 4.86323 26.9373 4.86206 26.1756V3.8268C4.86323 3.06507 5.48081 2.44749 6.24254 2.44749H18.8179V6.24549C18.8179 6.50447 19.0277 6.71424 19.2867 6.71424H23.6061V15.5747H10.3371C9.39959 15.5771 8.61443 16.2849 8.51717 17.2177C8.51131 17.2787 8.50779 17.3408 8.50779 17.404V22.7536C8.51131 23.7615 9.32811 24.5782 10.3371 24.5794H23.6061L23.6085 26.1744ZM26.1409 22.7514H26.1397C26.1397 23.2436 25.7401 23.6409 25.2491 23.6409H10.337C9.84599 23.6409 9.44636 23.2436 9.44519 22.7514V17.4018C9.44753 16.9108 9.84596 16.5136 10.337 16.5136H25.2479C25.7389 16.5136 26.1373 16.9108 26.1385 17.4018L26.1409 22.7514Z" fill="#EF6C00" stroke="#EF6C00" stroke-width="0.4"/>
<path d="M24.445 17.93H21.4848L21.4849 22.2308H22.3567V20.4038H24.1626V19.6772H22.3567V18.6566H24.445V17.93Z" fill="#283E4A"/>
<path fill-rule="evenodd" clip-rule="evenodd" d="M19.1985 18.4081C19.0215 18.2195 18.7977 18.0824 18.5504 18.0109C18.2821 17.9476 18.0067 17.9195 17.7313 17.9288H16.1457V22.232H17.7793C18.0383 22.2402 18.2973 22.2086 18.5481 22.1406C18.7754 22.075 18.984 21.9578 19.1574 21.7973C19.3695 21.584 19.5266 21.3227 19.6168 21.0355C19.7117 20.7391 19.7562 20.4297 19.7504 20.1191C19.7586 19.7758 19.7105 19.4324 19.6098 19.1031C19.5242 18.8441 19.3848 18.6074 19.1985 18.4081ZM18.7649 20.8714V20.8702V20.8691C18.8317 20.6124 18.861 20.3476 18.854 20.0827C18.8633 19.8249 18.8329 19.5671 18.7649 19.3175C18.7192 19.1605 18.6348 19.0175 18.5188 18.9015C18.4075 18.7972 18.268 18.728 18.118 18.6987C17.8837 18.6636 17.6458 18.6495 17.4079 18.6577L17.0188 18.6565V21.5054H17.6645C17.8403 21.5112 18.0161 21.4983 18.1883 21.4644C18.3184 21.4351 18.438 21.3741 18.5376 21.2851C18.6489 21.1702 18.7274 21.0273 18.7649 20.8714Z" fill="#283E4A"/>
<path fill-rule="evenodd" clip-rule="evenodd" d="M13.5678 17.9933C13.2267 17.937 12.8799 17.9159 12.5342 17.93H11.1396V22.232H12.0115V20.6089H12.5775C12.8787 20.616 13.181 20.5949 13.4787 20.5457C13.6404 20.5082 13.7928 20.439 13.9287 20.3429C14.0822 20.2316 14.2076 20.0863 14.2931 19.9175C14.3951 19.7113 14.4443 19.4828 14.4361 19.2519C14.4502 18.9519 14.3623 18.6566 14.1865 18.414C14.0341 18.2077 13.815 18.0589 13.5678 17.9933ZM13.1705 19.8144C13.2806 19.7734 13.3756 19.6984 13.4412 19.6011L13.4424 19.6011C13.508 19.5027 13.5432 19.3855 13.5408 19.2671C13.5455 19.1242 13.4963 18.9859 13.4025 18.8781C13.3123 18.7761 13.1881 18.7081 13.0533 18.6859C12.8471 18.6601 12.6385 18.6507 12.4299 18.6566H12.0115L12.0127 19.8824H12.4861C12.7158 19.8952 12.9467 19.8718 13.1705 19.8144Z" fill="#283E4A"/>
<path d="M19.1985 18.407V18.4081M19.1985 18.4081C19.0215 18.2195 18.7977 18.0824 18.5504 18.0109C18.2821 17.9476 18.0067 17.9195 17.7313 17.9288H16.1457V22.232H17.7793C18.0383 22.2402 18.2973 22.2086 18.5481 22.1406C18.7754 22.075 18.984 21.9578 19.1574 21.7973C19.3695 21.584 19.5266 21.3227 19.6168 21.0355C19.7117 20.7391 19.7562 20.4297 19.7504 20.1191C19.7586 19.7758 19.7105 19.4324 19.6098 19.1031C19.5242 18.8441 19.3848 18.6074 19.1985 18.4081ZM13.5678 17.9933C13.2267 17.937 12.8799 17.9159 12.5342 17.93H11.1396V22.232H12.0115V20.6089H12.5775C12.8787 20.616 13.181 20.5949 13.4787 20.5457C13.6404 20.5082 13.7928 20.439 13.9287 20.3429C14.0822 20.2316 14.2076 20.0863 14.2931 19.9175C14.3951 19.7113 14.4443 19.4828 14.4361 19.2519C14.4502 18.9519 14.3623 18.6566 14.1865 18.414C14.0341 18.2077 13.815 18.0589 13.5678 17.9933ZM13.4412 19.6011C13.3756 19.6984 13.2806 19.7734 13.1705 19.8144C12.9467 19.8718 12.7158 19.8952 12.4861 19.8824H12.0127L12.0115 18.6566H12.4299C12.6385 18.6507 12.8471 18.6601 13.0533 18.6859C13.1881 18.7081 13.3123 18.7761 13.4025 18.8781C13.4963 18.9859 13.5455 19.1242 13.5408 19.2671C13.5432 19.3855 13.508 19.5027 13.4424 19.6011L13.4412 19.6011ZM18.7649 20.8702V20.8714C18.7274 21.0273 18.6489 21.1702 18.5376 21.2851C18.438 21.3741 18.3184 21.4351 18.1883 21.4644C18.0161 21.4983 17.8403 21.5112 17.6645 21.5054H17.0188V18.6565L17.4079 18.6577C17.6458 18.6495 17.8837 18.6636 18.118 18.6987C18.268 18.728 18.4075 18.7972 18.5188 18.9015C18.6348 19.0175 18.7192 19.1605 18.7649 19.3175C18.8329 19.5671 18.8633 19.8249 18.854 20.0827C18.861 20.3476 18.8317 20.6124 18.7649 20.8691V20.8702ZM21.4848 17.93H24.445V18.6566H22.3567V19.6772H24.1626V20.4038H22.3567V22.2308H21.4849L21.4848 17.93Z" stroke="#283E4A" stroke-width="0.2"/>
</svg>
